<svg xmlns="http://www.w3.org/2000/svg" xmlns:xlink="http://www.w3.org/1999/xlink" viewBox="0 0 243 243"><defs><style>.cls-1{fill:url(#Sfumatura_senza_nome_172);}</style><linearGradient id="Sfumatura_senza_nome_172" y1="121.5" x2="243" y2="121.5" gradientUnits="userSpaceOnUse"><stop offset="0" stop-color="#95c11f"/><stop offset="0.03" stop-color="#90c020"/><stop offset="0.32" stop-color="#6bb629"/><stop offset="0.58" stop-color="#50b030"/><stop offset="0.82" stop-color="#40ab34"/><stop offset="1" stop-color="#3aaa35"/></linearGradient></defs><g id="Livello_2" data-name="Livello 2"><g id="B1_sfumato_1_-_light_" data-name="B1 (sfumato 1 - light)"><path class="cls-1" d="M121.5,0A121.41,121.41,0,1,0,243,121.5,121.64,121.64,0,0,0,121.5,0Zm.44,127.81a7.44,7.44,0,0,1-1,2.22c-.57.8-1.16.84-1.85.14a5.81,5.81,0,0,1-1.14-1.83,21.09,21.09,0,0,0,.23-2.26A1.1,1.1,0,0,0,119,126c.4-.2.75-.4,1.08.09,0,.07.21.17.24.15,1.34-1,1,.72,1.58,1C122.09,127.3,122,127.59,121.94,127.81Zm-3.67-5h0l.1.06a2.17,2.17,0,0,0,.09.71,1.31,1.31,0,0,1-.19,1.25c0-.67,0-1.34,0-2ZM129,146l-1.82-2.41-3-3.94c.9-6.68,2.26-11.57,3-10.87l-.77,1.06c-.26.35-.28.78.64.9s1.06.18,1.18-.68c0-.32.48-.23.76-.28.72-.13,1-.37.59-1.16s-.84-1.42-1.84-.75c-.25.16-.42.06-.53-.19s-.05-.31.17-.34a1.61,1.61,0,0,0,.76-.24,10.46,10.46,0,0,0,5.6-.08l1.74-1.31a.36.36,0,0,0,.57.07c.31-.24.73-.55.65-1,.28-.21.56-.41.89-.67a9.63,9.63,0,0,0,1.39-1.24.75.75,0,0,0,.89,0c.43-.23.78-.38,1.17.11.22.29.51.13.52-.2,0-.52.24-.66.71-.65.22,0,.49,0,.54-.31s-.18-.39-.36-.53-.48-.3-.42-.68.37-.65-.19-.88l-.5-.22a1.89,1.89,0,0,1-.4,0,3.14,3.14,0,0,1,1-.67c.41.31.81.63,1.2,1a8.56,8.56,0,0,0,1,.89c.7.48,1.18.26,1.26-.59a4.73,4.73,0,0,0-.26-1.91l.45-.06c.09.58.19,1.15.27,1.73-.46,1.29-.89,2.59-1.31,3.88a1.63,1.63,0,0,0-1.27.66c-.1.14-.56,0-.62.34s.24.42.46.55.41.15.42.46,0,.46,0,.62c-.22.53-.42,1.07-.68,1.58a20.73,20.73,0,0,1-1.3,2.24,1.15,1.15,0,0,0-.31.43c-2,2.94-4.64,5.49-6.89,8.27l0,0c-.16-.83-.11-1.6-1.51-1.08-1,.36-.6.65-.29,1s.49.73,0,1.18c-.24.25-.58.77-.12,1l.3.14a20.68,20.68,0,0,0-1.33,2.22,7.74,7.74,0,0,0-.69,2Zm15.42-60.32c1.73,0-1.19-4.08.55-2.65s2.23-2,2.68-.53,3.19-4.89,2.67-2,5.43,3.38,3,4.32a22.24,22.24,0,0,0-4.13,2.1c1,1.73.52,1.3-.07.75-.14-.12-.43,0-.77.13-.12.23-.21.32-.23.11a17.19,17.19,0,0,0-2,1.43c.37,0-2.51,5.13-1.19,2.67,1.44-2.67-3.21-1.24-1.13-2.72S142.67,85.67,144.41,85.63Zm11.17,42.82a34,34,0,0,0,5.27-2,1.67,1.67,0,0,1,.08-.32l-3.48-.17,0-2.62,8.09.63c.72-.44,1.44-.89,2-1.32,3-2.25,8.14-2.89,4.27-.51s3,4.36-.77,4.48-3.21,3-5,2.24c-.78-.32-1.7.57-2.48,1.53a6.52,6.52,0,0,1,.77,0l-1.25.58c-.77,1-1.27,1.83-1.11.84a.33.33,0,0,0-.05-.3l-.4.19c-.16.4-.39.77-.53,1.18a2.36,2.36,0,0,1-.65.08c-.85,1-1.56,2-.82.39a3,3,0,0,0,.16-.49,2.28,2.28,0,0,1-1.11-.74c-.73.22-1.35.51-.36-.53,2-2.14-5.69,3.4-2.68.94s-8.09,2.52-3.19-.24S152,129.37,155.58,128.45ZM159.71,63l.46.09c0,.09,0,.18,0,.27ZM219.4,169.23a109.66,109.66,0,0,1-23.28,31.56,225.45,225.45,0,0,0-62-14.11c-.05-.13-.07-.26-.12-.39a54.07,54.07,0,0,1-2.25-6.72,13.36,13.36,0,0,1-.47-4,3,3,0,0,1,1.87-2.82c3-1.37,4.09-4,3.06-7.12-.11-.34-.21-.68-.32-1a1.18,1.18,0,0,1,.73-1.59c2.66-.91,4.62-2.81,6.71-4.55a5.55,5.55,0,0,1,.63-.45c.38-.22.65-.15.86.28l.27.56c.36,0,.65,0,.66.11l0,.09a6.37,6.37,0,0,0-.13.74c1.57-1.58,5.36-3.91,3.67-5.55-.13-.08-.21-.15-.1-.14s.05.09.1.14c.3.18.92.45.73.3,0,.25.34-1.23.17-1,.28.32,2.87,1.29,2.74.3a.92.92,0,0,0,1.5.48,8,8,0,0,1,.5,2.79,16.29,16.29,0,0,0,.4-1.94,5.83,5.83,0,0,1,.27-3,16.71,16.71,0,0,1-.27,3c0,.2,0,.4.07.6a2.49,2.49,0,0,0,1.28-3L158,155c1.62-1,4.41-2.28,4.65-.39l.62-4.93a1.37,1.37,0,0,1,1.81,1,2.38,2.38,0,0,1-.24-1.79,2.54,2.54,0,0,1,2,1.14l.44-2.05a2.24,2.24,0,0,0,1.5-.7c1.58-1.32,3.27-2.84,3.53-4.88.31.65.62,1.31.94,2a2.69,2.69,0,0,1,3.55-2.22,9.91,9.91,0,0,0,.39,1.28l.89-.85.75,3.07h.2a7.69,7.69,0,0,1,2.31-.78l1.85-.28a1.6,1.6,0,0,0,.11.29c.15.29.25.89.63.62s.83-.26.94-.61c.13,0,.27.08.39.09a1,1,0,0,0,.05.38c.19.47,0,.73-.42.89-.18.06-.38.2-.31.43a.44.44,0,0,0,.47.29,15.5,15.5,0,0,1,3,.21,1.7,1.7,0,0,0,1.41-2c-.11-.35.14-.37.28-.51s.47-.32.37-.62-.43-.19-.67-.25-.83.39-.95,0l-.06-.14a2,2,0,0,0,1.6-1,.43.43,0,0,0,0-.07,15.74,15.74,0,0,1,1.65-.68l1.64,1.12c.17.12.33.26.49.39.13.38.2.77.76.61a25.33,25.33,0,0,0,2.62,2.17l.34.64c-.32,0-.74,0-.66.4s-.17,1.24.71,1.23a.85.85,0,0,1,1,.72.57.57,0,0,0,.11.22,3.13,3.13,0,0,0,.36,0c.1-.07.21-.2.2-.29a2.27,2.27,0,0,1,.24-1.08l.36.19c-.15.22-.17.42.38.54a.55.55,0,0,1,.38.25.85.85,0,0,1,.1.33c.67-.11,1.27-.34,1.36-.76.2-.89,1.11-2.85,2.09-2.33s3.28,1.45,3,.91a7.36,7.36,0,0,1-.56-3.92c.33-1.08-.35-3.6,0-3.74a1.43,1.43,0,0,0,.26-1.87c-.3-.44.41-1.31,1.64-1.89a14.4,14.4,0,0,0-2.21-3.63,10.22,10.22,0,0,0-2.94-2.09,1.55,1.55,0,0,1,0-1.66l-.92-.46c-.42-.21-.1-.5-.13-.75s0-.58-.25-.67-.5.14-.62.37c-.28.5-.48.88-1.22.49-.55-.29-.52.2-.36.58a.39.39,0,0,1,0,.42l-.33-.16a.48.48,0,0,0,0-.17c-.27-.51-.77-.84-1.24-.53a10.53,10.53,0,0,1-1.61-1l-.2-.16c.11,0,.24,0,.35,0s.5,0,.59-.27-.18-.44-.39-.59-.42-.25-.42-.58v-1.18a8.38,8.38,0,0,1-.87.13,10.92,10.92,0,0,1,5.71-2.44,5.78,5.78,0,0,0,2.13-.74,1.42,1.42,0,0,1-.5,1,.6.6,0,0,0-.11.8c.22.29.53.21.8.11.49-.18,1-.58,1.42.07a.21.21,0,0,0,.37-.13c.07-.65.53-.73,1-.79.16,0,.39-.23.31-.29a2.61,2.61,0,0,1-.92-2s-.13,0-.17-.06l-.2-.18a10.44,10.44,0,0,0,2.13-2.63l.1-.28a1.21,1.21,0,0,0,.56-.61c0-.08.09-.21,0-.27a2.85,2.85,0,0,1-.16-.43c.09-.27.17-.5.29-.88a6.35,6.35,0,0,0,.26-2.91.71.71,0,0,1,.95-.19c.25.12.61.22.79-.07s-.1-.55-.3-.75-.59-.49.05-.7c.3-.1.13-.35.12-.57,0-.82-1.16-1.17-.9-2.15.07-.23-.36-.23-.52,0-.47.58-.87,1.26-1.8.71l-.12-.08a4.26,4.26,0,0,1-2.32.32h-.12a3.64,3.64,0,0,1-1.33-.19c0-.07-.05-.13-.07-.2-.13-.4-.09-1.07-.73-.9l-.34.12c-.21-.31-.42-.63-.65-.92.21-.09.45-.18.36-.48s-.34-.31-.56-.31c-.5,0-.69-.21-.65-.71,0-.32,0-.75-.36-.83s-.55.36-.66.68-.29.47-.59.15a.3.3,0,0,0-.44,0l-.14.13-.53-.09-2.73-.39a.8.8,0,0,0-.23-.8l-.58-.42c-.78.33-1.36.42-1.29.21l0-.18c.1-.35.25-.78-.11-1s-.64.21-.8.5a.78.78,0,0,1-.35.35c-1.19-4-6.11-6.49-10.36-8l-3-1.09a.79.79,0,0,0-.13-.31c-.26-.33-.42-.64-.05-1,.16-.16.34-.39.14-.6a.51.51,0,0,0-.71.06c-.49.42-.87.72-1.39,0a.9.9,0,0,0-.69-.3,23.33,23.33,0,0,0,2.27-2.17.53.53,0,0,1,.11.25c0,.2,0,.5.31.51a.59.59,0,0,0,.5-.41c.22-.46.49-.51.93-.27s.75.37,1,0-.19-.62-.41-.88l-.12-.14c-.12-.18.18-.38.66-.45l-.31-.68-.21-.47c-.45-.1-.6-.73-.33-1.42l-.47-.28a.37.37,0,0,0-.47,0,8.34,8.34,0,0,0-1-1.37l-3-3.46a1.87,1.87,0,0,1,.53-.19l-.17-.45c-.13-.36,0-1-.48-1.06-.74,0-.47-.38-.41-.73s.12-.64-.21-.77-.52.2-.68.42-.29.47-.51.56l-3.67-4.22c.07,0,.14.07.22.06.66-.06,1-1,.64-1.71s.13-1.84-.25-2.75c-.08-.18.4-.24.6-.39.5-.37,1.1-.71.53-1.46s-1-.23-1.46.12a2,2,0,0,1-1.47.61c-.67,0-.64,1.06-1.42,1,0,0-.18.25-.4.14l-.56-.27a1.12,1.12,0,0,1-.5,0l-.37-.43s0-.06,0-.1L165,68l-.1-.53c-.44.16-.59-.06-.33-.49l-.64-.2-.42-.13-.21-.23a1,1,0,0,1,1.06-.44.41.41,0,0,0,.55-.27c0-.27-.18-.4-.38-.51a2.25,2.25,0,0,0-2.18.17c-.48-.51-1-1-1.52-1.45a.84.84,0,0,1,1.35-.26.48.48,0,0,0,.63,0c.21-.26-.07-.46-.18-.68s-.75-.47-.29-.68c.85-.38.25-.86.22-1.28l0-.6c-.45.15-.79.16-.75,0v-.12c0-.37.26-.88-.17-1s-.68.32-.81.66c-.22.6-.49.38-.87.2s-.84-.2-.56.47c.16.38,0,.57-.26.81a1.1,1.1,0,0,0-.32.8,3.61,3.61,0,0,0-.3-.25l-.13-.08a1.24,1.24,0,0,1,.27-.37c.29-.24.62-.72.27-1s-.72-.69-1.19-.28-1-.18-1.48,0c-.92.35-.61-.57-.88-.89s-.29-.58-.56-.35-.78.23-.91.64l-.6-.22a6.43,6.43,0,0,0,.13-.66c0-.31.25-.42.47-.57.56-.37.34-.62-.16-.74s-.8-.22-.82-.77c0-.32,0-.76-.36-.81s-.52.41-.64.73l-.05.15c0,.21-.41,0-.82-.51l.08-.63a3.38,3.38,0,0,0-.5-2.14c-.17-.29-.38-.57-.75-.55s-.5.38-.59.68a10.38,10.38,0,0,1-1.13,2.68l-.12.19c-.2.13-.44.16-.52.06l0-.13c-.08-.38.11-.93-.52-1a1.35,1.35,0,0,0-1.25.61.37.37,0,0,0,0,.58.87.87,0,0,1,.18.26A23.27,23.27,0,0,1,143,55.5c.16-.27.35-.42.75-.16s.73.43,1,.1-.18-.67-.42-.95l-.09-.09c-.11-.1.18-.78.65-1.52l-.63-.37a.73.73,0,0,1-.43-.91c0-.22,0-.5-.22-.59s-.52.12-.63.33c-.31.6-.66.62-1.35.59a3.87,3.87,0,0,0-2.13.22l-.57.31a1.47,1.47,0,0,1-1.2-1.47l-.47-.49-1.34-1.38c-1.85.23-3.24.06-3.08-.38l.06-.4c0-.3.08-.73-.31-.81s-.49.29-.58.56c-.17.52-.29,1.06-.43,1.59l0,.19c-.19.16-.26-.06-.15-.49l0-.38c0-.25,0-.56-.34-.62a.44.44,0,0,0-.48.4c-.11,1.79-1.26,1.13-2.21,1a10.15,10.15,0,0,0-1.63-.23c-.69,0-1.6-.12-1.31,1.17.08.35-.08,1-.82.57-.25-.16-.58-.37-.81.09-.14.29-.48.14-.59.07-.66-.43-.93-.16-1.12.24-.85-.26-1.68-.64-2.54-.82.33-.26.26-.54-.16-.61a.88.88,0,0,1-.87-1c0-.24,0-.57-.36-.62s-.43.25-.53.48c-.17.4-.21.79-.84.33-.35-.25-.64.49-1.06.65-.58.23-.59.95-1,1.39l-.26.28c.41.17.64.37.51.42l-.11.07c-.27.15-.58.31-.65.61-.19.08-.36.19-.55.25a4.16,4.16,0,0,1-1,.2,2.29,2.29,0,0,1,.36-1.22l-.31-.27c-.67-.57-.45-1.37-.82-2-.16-.26-.19-.75-.55-.71s-.26.53-.33.82,0,.82-.55.88a1.15,1.15,0,0,1-1.18-.47c-1.24-1.76-2.81-1.84-4.4-.5-.34-.2-.69-.41-1-.6,0,0,0-.08.09-.11.22-.1.57-.2.41-.54a.65.65,0,0,0-.76-.3,7.29,7.29,0,0,1-2-.15,1.17,1.17,0,0,1-.27,0c-.43-.17-.84-.38-1.27-.54a5.27,5.27,0,0,0-.85-.53c-.19-.09-.38-.22-.36-.41.11-1.18-1-1.15-1.59-1.51s-.52.24-.53.58.06.69-.25.81l-.43-.08a.86.86,0,0,1-.32-.74c0-.53-.24-.89-.79-.9s-.32.52-.41.81-.18.5-.31.41A1.31,1.31,0,0,0,93,45.88a17.56,17.56,0,0,0-3.55-.08,1.87,1.87,0,0,1-.13-.28c-.09-.34-.21-.88-.54-.85l-1.53.15a8.5,8.5,0,0,0-.16-2,1.4,1.4,0,0,0-.57.64l-.15.33c-.07.14-.18.4-.31.28l-.87-.77a8.13,8.13,0,0,1-2.13,2.17l.81.94c.16.19-.36.26-.52.43s-.42.28-.37.54a.46.46,0,0,0,.62.31,1,1,0,0,1,.49,0,11.12,11.12,0,0,1-1.56,1.67L82,49.09a2.58,2.58,0,0,0-1.79-.19c-.43.12-.68-.08-.73-.53a1.87,1.87,0,0,0-.12-.57c-.11-.29-.25-.7-.63-.6s-.35.56-.24.84c.25.6,0,.91-.45,1.29s-.92,1-.19,1.62a.86.86,0,0,1,.11,1c-.27.41-.45-.11-.66-.24s-.49-.08-.51.19c0,.53-.27.74-.78.72-.19,0-.42.06-.47.28s.18.39.36.51.51.32.45.75a.85.85,0,0,0,.31.83,6.06,6.06,0,0,1-1.48,3,.3.3,0,0,0-.36,0c-.32.24-.81.55-.64,1.13a18.41,18.41,0,0,1-1.58,1.44c-.32,0-.63.12-.72.54-.36.27-.74.53-1.12.78a.75.75,0,0,1-.29-.8c0-.31,0-.9-.41-.82s-1.29-.08-1.22.85c0,.47-.05.82-.6.93-.21,0-.47.15-.4.45a.44.44,0,0,0,.47.28,1.91,1.91,0,0,1,1.4.36c-.22.5-.58,1.3-1.17,2.59,0,0,0,0,0,.06-.17-.08-.29-.39-.46-.5s-.53-.52-.85-.3-.06.58,0,.88.55.63,0,.91-.78,1-1.57.6c-.43-.24-1-.46-1.33,0s.11,1,.47,1.38a2.58,2.58,0,0,0,.63.45c.43.21.45.5.22.87-.37.57-.75,1.14-1.1,1.72a.61.61,0,0,1-.65.28c-.83-.06-1,.18-.68.92.21.46.41.75,0,1.34l-.49.71c.67-.07,1,0,.74.24l-.18.25a.7.7,0,0,1-.46.34l-.07,0a.87.87,0,0,1-.58-.26c-.27-.24-.8-.54-1-.07a2.54,2.54,0,0,0-.3.93l-.6.19a.94.94,0,0,1-.15.06s0,0,0-.07-.12-.13-.15-.12c-.89.3-.87-.36-1-.91,0-.2-.13-.39-.35-.4s-.33.19-.42.36l-.12.26c-.12.3-1.35.61-2.74.68l-.69,1.1-.3.47c.44,1.07.47,2,.06,2l.06.45a.65.65,0,0,0,.56.5c-.07.12-.11.25-.17.37a15.9,15.9,0,0,0-1.51-1c-.6-.46-1,.47-1.59.41-.15,0,.06.59.27.81.43.42.42.91-.06,1.12s-.84,1-1.55,1.15c-.21,0-.42.21-.27.4.28.37-.08,1.13.74,1.17.51,0,.9.18.7.84-.1.34-.24.6-.66.53l-.46-.08a3.89,3.89,0,0,0-.87.32,1.8,1.8,0,0,0,.43.52l-.13.36a1.39,1.39,0,0,0,.23,1.21c.19.32.35.59,0,.94s-.18.59.25.64c.73.09.35,1,.85,1.15s.53-1,1-.84c.73.21,1,0,1.26-.63a2.82,2.82,0,0,1,.17-.46l.13.15.49-.47c.09-.09.16,0,.13.13-.25.91.42.68.77.52.94-.45,1.13.55,1.64.86s-.15.64-.34.93a.83.83,0,0,0,.2,1.2,1.36,1.36,0,0,0,1.59-.27l.05-.12c0-.12.47.13.93.58l.2-.45c.06-.15.17-.32.26-.49a18.48,18.48,0,0,1,1.55,1.74,1.08,1.08,0,0,0,.65.91,6.62,6.62,0,0,1,1.18,5.55c-.43,1.4-1.46,2.58-1.82,4a.69.69,0,0,0-.68,0c-.58.26-1.26.08-1.84.47a1.24,1.24,0,0,0-.6,1.65,2.48,2.48,0,0,1-.13,2.33c-.32.58-.15,1.37-.42,2.06s.27.77.77.83.94-.09,1,.54-.54.27-.82.43-.88.1-.68.59-.08,1.16.75,1.13a1.57,1.57,0,0,1,.6.1,39.57,39.57,0,0,0,.54,14.35,4.43,4.43,0,0,0-3,1.67l-.58-.57a8.27,8.27,0,0,0-1-.58l-.22.48c-.16.36-.62.78-.08,1.29s-.31.85-.08,1.36c.33.76-.45.58-.76.79s-.72.3-.49.57.3,1.22,1.1,1a1.25,1.25,0,0,1,.4-.06,2.24,2.24,0,0,0,.11,1.43s0,0,.05.07c-.19-.07-.36,0-.51.18a3,3,0,0,1-1,.84,1.4,1.4,0,0,0-.59,2.08c.28.39.62.33.69-.08l.15-.92c.65,0,1.52,0,1.93,0l.14-.29c.21-.43-.24-.42-.46-.55-.37-.22-.13-.51-.1-.78a1.22,1.22,0,0,0,0-.27,3.26,3.26,0,0,0,1.16.72,1.53,1.53,0,0,1,0,.52c-.07.31-.75.7-.14,1,.38.22.82,0,1.22-.12s.47.08.59.33a6.33,6.33,0,0,1,.39.89c.25.88.73.89,1.44.48s.91.56,1.41.8a.47.47,0,0,1-.1.74,1,1,0,0,1-1.45-.26c-.75-1-1.58-.81-2,.39-.13.38.23.52.48.6.57.19.87.47.76,1.13-.05.3,0,.91.42.79s1.09.13,1.22-.65c.06-.31-.29-1,.36-.89s.58.58.23,1a.3.3,0,0,0,.1.43c.67.28.93,1.2,1.82,1.14.39,0,.56.25.67.58s.14.4.38.39a.41.41,0,0,0,.37-.49c-.22-1.07.65-1.42,1.25-2a.56.56,0,0,1,.7-.14,1.94,1.94,0,0,1,.47,2.42c-.24.26-.6.57-.4.91s.68.15,1.06.08.57-.62.79-.14,1.11.87.63,1.68a1.41,1.41,0,0,0-.24.82c0,.35-.06.82.55.57.28-.11.43.06.6.2s.55.12.58-.19c.06-.72.55-.85,1.11-1s1.16-.38.78-1.2c-.1-.22,0-.38.25-.43l.52-.11c.64-.15,1,.43.82,1.28l.27.75c.17.45-.17.71-.41,1s-.46.61-.18,1,.61.15.9,0,.84-.55,1.22.11c.11.18.43.17.44-.07.06-.73.61-.74,1.1-.85.09,0,.26-.07.26-.11.08-.9.76-.8,1.38-1s0-.57-.25-.76c-.88-.68-.89-.81.13-1.34.68-.36.18-.68-.06-.86-.72-.54-.7-1.07-.06-1.6s.47-1.36.59-2.06l.08-.43c0-.52,0-.58.2-.14l.48-.13.52-.14c.08-.54,1-1,2-1.12l.16-.76.1-.46c0-.57.77-1.23,1.6-1.46L84,138c-.09-.12.24-.26.4-.34a23.25,23.25,0,0,0,7.74-6.82,12,12,0,0,1,.81-1c2-.24,4-.4,6.11-.58a8.17,8.17,0,0,1,.7.45c.85.59,1.65,1.27,2.53,1.8.65.39,1.12.4,1.48.11a11.31,11.31,0,0,0,6.19,4.15c.16.24.3.49.47.73a13.1,13.1,0,0,1,2.28,6.93A38.85,38.85,0,0,0,115,153.73a1.73,1.73,0,0,1-.44,2.06c-.13.13-.26.26-.38.4-.41,2.65-2,5-3.5,7.22q-2.54,3.65-5.06,7.28a13,13,0,0,0-1.94,3.54c-.39,1.32-.35,2.72-.65,4.06-1.46,6.45-8.78,8.53-15.18,8.4l-.29.22A231.06,231.06,0,0,0,42,195.85,109,109,0,1,1,219.4,169.23ZM186.17,145a4.66,4.66,0,0,0,.7-.08A.46.46,0,0,1,186.17,145ZM111.84,95.67l-.32-.34c-.17-.19-.31-.38-.46-.57,0,.08,0,.17,0,.25a8,8,0,0,1-4.17-4.22,2.46,2.46,0,0,0-1.06.91l1.3,1-1.71.68a2.38,2.38,0,0,1,.41-1.73l-1.23-1a6.14,6.14,0,0,1-2-2.55c-1.22-.17-1.75-2.54-5.25-4.53-3.72-2.13,3-.17-.64-3.58S101,82.76,98,78.85s4.61,4.38,3.25,1.15c-1-2.28.47.83.92,2,.68,1,1.86,2.64,1.68,1.69-.23-1.17.35.84.58,1.65a5.49,5.49,0,0,1,1.85-.06c1.44.22,3,.7,4.31.1-.1-.62.08-1.29,1.69-2,3.63-1.67-2.8,4.25.72,4.86s-3.79,2.06-.49,4.71c2,1.62,0,.48-1.28-.14a4.28,4.28,0,0,1-.15,1.85c4.26,4.85,3.24,3.76,1.26,1.6C113.42,97.49,113.75,97.91,111.84,95.67Zm-31.28,30.1c4.91,1.14,3.38,1.19,1.51,1.26s-5.4,1.58-7.84,3.35c-1.93,1.4,1.24-1,2.17-1.68-.36,0,1.79-3.24.94-4.3s1.46.06,1.22-1.39,2.43,1.92,4.27.8,3.34-2-2.29,1.85ZM67,71.17c-.1.36-.22.71-.35,1-.21-.14-.38-.49-.08-1.07Zm-5.71,35.76-.07.18s0,0,0,0a.27.27,0,0,1,.07-.35A1.1,1.1,0,0,1,61.28,106.93Z"/></g></g></svg>